<svg xmlns="http://www.w3.org/2000/svg" style="display:none">

  <symbol id="icon-apple" viewBox="0 0 24 24">
    <path d="M12 9.5c3.5-2 7 .5 7 5 0 4-3 7-6 7s-6-3-6-7c0-4.2 2.7-5.7 5-5z" fill="#E2554F"/>
    <path d="M12 9.5c.2-1.4-.3-2.6-1.4-3.3" stroke="#7A4A2B" stroke-width="1.4" fill="none" stroke-linecap="round"/>
    <path d="M12.8 6.6c1.4-.6 2.4.2 2.6 1.3-1.2.5-2.2-.1-2.6-1.3z" fill="#3FAF7E"/>
  </symbol>

  <symbol id="icon-pizza" viewBox="0 0 24 24">
    <path d="M12 4 21 19H3z" fill="#F2C879"/>
    <path d="M12 4 21 19H3z" fill="#F2A33E" opacity=".55"/>
    <circle cx="11" cy="11" r="1.3" fill="#E2554F"/>
    <circle cx="14.5" cy="14" r="1.3" fill="#E2554F"/>
    <circle cx="9.5" cy="15.5" r="1.3" fill="#E2554F"/>
  </symbol>

  <symbol id="icon-cake" viewBox="0 0 24 24">
    <rect x="4" y="13" width="16" height="7" rx="2" fill="#FDE3ED"/>
    <rect x="4" y="13" width="16" height="3" fill="#FF6FA0"/>
    <rect x="11" y="6" width="2" height="6" fill="#E8B33C"/>
    <path d="M12 4c.9 1 .9 2-.1 2.8C11 6 11 5 12 4z" fill="#F2A33E"/>
  </symbol>

  <symbol id="icon-squeaky-toy" viewBox="0 0 24 24">
    <path d="M6 9a2 2 0 1 0-2.8 2.8L8 16.6 16.6 8 11.8 3.2A2 2 0 1 0 9 6l-1.4 1.4L6 6z" fill="#9FE0C9"/>
    <path d="M18 18a2 2 0 1 0 2.8-2.8L16 10.4 7.4 19l4.8 4.8A2 2 0 1 0 15 21l1.4-1.4L18 21z" fill="#9FE0C9"/>
  </symbol>

  <symbol id="icon-beach-ball" viewBox="0 0 24 24">
    <circle cx="12" cy="12" r="9" fill="#FFFFFF"/>
    <path d="M12 3a9 9 0 0 1 7.8 4.5L12 12z" fill="#FF6FA0"/>
    <path d="M12 12 19.8 16.5A9 9 0 0 1 12 21z" fill="#6FB7E8"/>
    <path d="M12 12 4.2 16.5A9 9 0 0 1 4.2 7.5z" fill="#F2A33E"/>
    <circle cx="12" cy="12" r="9" fill="none" stroke="#2E2640" stroke-opacity=".15"/>
  </symbol>

  <symbol id="icon-pillow" viewBox="0 0 24 24">
    <rect x="3" y="6" width="18" height="13" rx="6" fill="#F4EFFB"/>
    <circle cx="8.5" cy="12.5" r="1" fill="#C9BCE6"/>
    <circle cx="15.5" cy="12.5" r="1" fill="#C9BCE6"/>
    <path d="M12 7v11" stroke="#C9BCE6" stroke-width="1" stroke-dasharray="2 2"/>
  </symbol>

  <symbol id="icon-blanket" viewBox="0 0 24 24">
    <rect x="3" y="5" width="18" height="14" rx="2" fill="#FCEFDD"/>
    <path d="M3 9h18M3 13h18" stroke="#F2A33E" stroke-width="2"/>
  </symbol>

  <symbol id="icon-party-hat" viewBox="0 0 24 24">
    <path d="M12 3 19 20H5z" fill="#FF6FA0"/>
    <circle cx="9" cy="11" r="1" fill="#FFFFFF"/>
    <circle cx="14" cy="14" r="1" fill="#FFFFFF"/>
    <circle cx="11" cy="17" r="1" fill="#FFFFFF"/>
    <circle cx="12" cy="3" r="2" fill="#FFD66B"/>
  </symbol>

  <symbol id="icon-earbuds" viewBox="0 0 24 24">
    <rect x="4" y="9" width="5" height="7" rx="2.5" fill="#FFFFFF" stroke="#C9BCE6"/>
    <rect x="6.2" y="4" width="1.6" height="6" rx="0.8" fill="#C9BCE6"/>
    <rect x="15" y="9" width="5" height="7" rx="2.5" fill="#FFFFFF" stroke="#C9BCE6"/>
    <rect x="16.2" y="4" width="1.6" height="6" rx="0.8" fill="#C9BCE6"/>
  </symbol>

  <symbol id="icon-snack-puffs" viewBox="0 0 24 24">
    <rect x="3" y="10" width="6" height="6" rx="2.6" fill="#F2A33E" transform="rotate(-12 6 13)"/>
    <rect x="9.5" y="7" width="6" height="6" rx="2.6" fill="#F2C879" transform="rotate(8 12.5 10)"/>
    <rect x="15" y="11" width="6" height="6" rx="2.6" fill="#F2A33E" transform="rotate(-6 18 14)"/>
  </symbol>

  <symbol id="icon-energy-drink" viewBox="0 0 24 24">
    <rect x="7" y="3" width="10" height="18" rx="2.5" fill="#6FB7E8"/>
    <rect x="7" y="3" width="10" height="4" rx="2.5" fill="#3B5BA8"/>
    <path d="M13.5 9 10 14h2.5l-1 5 4.5-6h-2.5z" fill="#FFD66B"/>
  </symbol>

  <symbol id="icon-gift" viewBox="0 0 24 24">
    <rect x="4" y="9" width="16" height="11" rx="1.5" fill="#FDE3ED"/>
    <rect x="4" y="9" width="16" height="3" fill="#FF6FA0"/>
    <rect x="11" y="9" width="2" height="11" fill="#FF6FA0"/>
    <path d="M8 9c-1.5 0-2.5-1-2.5-2.2C5.5 5.6 6.5 5 7.5 5 9 5 10 7 11 9z" fill="#FF6FA0"/>
    <path d="M16 9c1.5 0 2.5-1 2.5-2.2 0-1.2-1-1.8-2-1.8-1.5 0-2.5 2-3.5 4z" fill="#FF6FA0"/>
  </symbol>

  <symbol id="icon-paint" viewBox="0 0 24 24">
    <path d="M12 3a8 8 0 1 0 0 16c1 0 1.6-.6 1.6-1.4 0-.5-.2-.8-.4-1.1-.2-.3-.4-.6-.4-1 0-.8.6-1.3 1.4-1.3H16a4 4 0 0 0 4-4c0-3.9-3.6-7.2-8-7.2z" fill="#FCEFDD"/>
    <circle cx="8.3" cy="10.5" r="1.4" fill="#E2554F"/>
    <circle cx="11.5" cy="7.7" r="1.4" fill="#6FB7E8"/>
    <circle cx="15.2" cy="9" r="1.4" fill="#F2A33E"/>
    <circle cx="9.5" cy="14.2" r="1.4" fill="#3FAF7E"/>
  </symbol>

  <symbol id="icon-noodles" viewBox="0 0 24 24">
    <path d="M4 11h16l-1.4 8a2 2 0 0 1-2 1.7H7.4a2 2 0 0 1-2-1.7z" fill="#F4F2F8"/>
    <path d="M5 11a7 7 0 0 1 14 0z" fill="#F2C879"/>
    <path d="M8 14c1 1 1 2 0 3M12 14c1 1 1 2 0 3M16 14c1 1 1 2 0 3" stroke="#E8B33C" stroke-width="1.2" fill="none" stroke-linecap="round"/>
    <rect x="14.5" y="2" width="1.4" height="7" rx="0.7" fill="#C9BCE6" transform="rotate(10 15 5)"/>
    <rect x="17" y="2.5" width="1.4" height="7" rx="0.7" fill="#C9BCE6" transform="rotate(10 17.5 5.5)"/>
  </symbol>

  <symbol id="icon-ghost-pepper" viewBox="0 0 24 24">
    <path d="M9 4c1.4-1.2 3-1 3 .6 0 1-1 1.4-1 2.4 2.6-.6 6 1.6 6 6 0 4-3 8-6.5 8S4 17 4 13.5C4 10 7 8.4 9 8c-.6-1.4-1.4-2.8 0-4z" fill="#E2554F"/>
    <path d="M9.5 4.4c.8-.7 1.8-.6 1.8.3" stroke="#3FAF7E" stroke-width="1.2" fill="none" stroke-linecap="round"/>
  </symbol>

  <symbol id="icon-rocket-fuel" viewBox="0 0 24 24">
    <rect x="7" y="4" width="10" height="17" rx="2.5" fill="#FF9B7A"/>
    <rect x="7" y="4" width="10" height="4" rx="2.5" fill="#E2554F"/>
    <path d="M12.5 9c-1.5 2-3 3.6-3 5.4 0 1.6 1.3 2.6 2.8 2.3-.4-.9-.2-1.6.4-2.3.3 1 .9 1.5 1.8 1.7 1-1 1.3-2.6.5-4-.6 1-1.2 1-1.5.4.4-1.2.2-2.5-1-3.5z" fill="#FFD66B"/>
  </symbol>

  <symbol id="icon-dynamite-candy" viewBox="0 0 24 24">
    <rect x="7" y="6" width="10" height="15" rx="3" fill="#FFFFFF"/>
    <path d="M7 9h10M7 12h10M7 15h10M7 18h10" stroke="#E2554F" stroke-width="2"/>
    <rect x="7" y="6" width="10" height="15" rx="3" fill="none" stroke="#E2554F" stroke-width="1"/>
    <path d="M12 6V3" stroke="#C98A4A" stroke-width="1.4" stroke-linecap="round"/>
    <path d="M12 3c.8-.4 1.6 0 1.7.9-.9.3-1.5-.1-1.7-.9z" fill="#FFD66B"/>
  </symbol>

</svg>
